<mxfile host="app.diagrams.net" modified="2024-07-22T17:57:50.378Z" agent="Mozilla/5.0 (X11; Ubuntu; Linux x86_64; rv:128.0) Gecko/20100101 Firefox/128.0" version="24.7.1" etag="4ZgeVTkcFB_LiR49lIdX" type="github">
  <diagram name="Page-1" id="MT5AVl9cc5_5kRAlkrLl">
    <mxGraphModel>
      <root>
        <mxCell id="0" />
        <mxCell id="1" parent="0" />
      </root>
    </mxGraphModel>
  </diagram>
</mxfile>
